<svg width="153" height="181" viewBox="0 0 153 181" fill="none" xmlns="http://www.w3.org/2000/svg">
<g clip-path="url(#clip0_612_6674)">
<path d="M32.8606 81.0375C41.8702 89.0782 34.7935 111.533 33.1554 116.24C32.8606 117.057 32.6312 117.874 32.4019 118.724C30.9931 124.15 26.9961 141.441 32.8278 143.5C39.7734 145.919 49.1762 112.612 55.4338 96.6613C59.5619 86.1038 63.3623 72.4739 69.2267 62.1125C74.1738 53.3527 82.8231 46.979 92.7828 45.4428C99.3681 44.4296 105.658 47.8615 108.083 54.4967C111.195 61.8837 104.119 69.4995 91.8 78.6841C83.9698 85.1559 77.5811 90.6144 59.6601 137.29C40.7563 186.514 22.0818 181.023 17.5606 179.617C13.0394 178.212 -8.87861 155.071 3.99698 103.264C13.3998 65.4464 32.8606 81.0375 32.8606 81.0375Z" fill="#428A5E"/>
<path d="M152.246 22.6609C157.521 4.25886 134.391 -6.85427 113.128 6.18732C91.8982 19.2289 103.856 43.1221 117.355 46.0965C130.82 49.0709 147.168 40.4419 152.246 22.6609Z" fill="#428A5E"/>
<path d="M110.966 75.4809C93.7331 79.7954 78.2038 111.206 74.6327 120.653C71.0616 130.099 63.1986 158.176 67.3595 170.89C70.5374 180.5 86.4926 185.501 94.7815 171.217C101.498 159.647 101.006 146.572 104.053 134.74C107.264 122.319 112.735 111.501 117.879 104.244C127.937 90.0914 128.035 71.1664 110.966 75.4156H110.933L110.966 75.4809Z" fill="#428A5E"/>
</g>
<defs>
<clipPath id="clip0_612_6674">
<rect width="153" height="180" fill="white" transform="translate(0 0.5)"/>
</clipPath>
</defs>
</svg>
